<svg xmlns="http://www.w3.org/2000/svg" xmlns:xlink="http://www.w3.org/1999/xlink" viewBox="0 0 713.31 264.67"><defs><style>.cls-1{fill:#33c;}.cls-2{fill:#696;}.cls-3{fill:#6c6;}.cls-4{fill:#fff;}.cls-5{opacity:0.04;}.cls-6{fill:url(#linear-gradient);}.cls-7{fill:url(#linear-gradient-2);}.cls-8{opacity:0.03;}.cls-9{fill:url(#linear-gradient-3);}.cls-10{fill:url(#linear-gradient-4);}</style><linearGradient id="linear-gradient" x1="3.43" y1="10.46" x2="80.65" y2="109.12" gradientTransform="matrix(1, 0, 0, -1, 0, 264.67)" gradientUnits="userSpaceOnUse"><stop offset="0"/><stop offset="1" stop-color="#fff"/></linearGradient><linearGradient id="linear-gradient-2" x1="13.09" y1="22.69" x2="77.74" y2="105.28" xlink:href="#linear-gradient"/><linearGradient id="linear-gradient-3" x1="77.56" y1="110.76" x2="182.25" y2="252.32" gradientTransform="matrix(1, 0, 0, -1, 0, 264.67)" gradientUnits="userSpaceOnUse"><stop offset="0" stop-color="#fff"/><stop offset="1"/></linearGradient><linearGradient id="linear-gradient-4" x1="66.6" y1="103.14" x2="144.52" y2="202.68" xlink:href="#linear-gradient-3"/></defs><g id="Layer_2" data-name="Layer 2"><g id="Layer_1-2" data-name="Layer 1"><g id="Logo"><path class="cls-1" d="M52.46,149.33c3.81-.48,7.78.48,11.6.16,12.23,2.22,21.77,5.72,26.53,21.13,3.18,10.49,4.29,21.14,1.12,31.94-2.86,10.17-8.9,17.64-19.07,21.61-24,8.9-47.83,18.12-71.67,27.18-.15.15-.47.15-.95.15-.16-2.22.64-4.13,1.11-6,5.41-23.2,10.81-46.4,16.05-69.76,2.86-12.4,10.49-20.34,22.57-24A90.12,90.12,0,0,1,52.46,149.33ZM10.19,239.59a1.5,1.5,0,0,0,1.43,0C31.8,232,51.82,224.33,72,216.7a22.73,22.73,0,0,0,12.24-10.48c6.83-13,5.56-26.06,0-38.93-2.7-6.2-7.79-9.54-14.14-11.44a46.1,46.1,0,0,0-27.81,1C32.91,160,27,166.49,24.65,176.19c-3.81,16.36-7.47,32.57-11.28,48.94C12.26,230.05,11.14,234.82,10.19,239.59Z"/><path class="cls-1" d="M83.92,166.65c-2.86-6.51-8.1-10.17-14.78-12.08a49,49,0,0,0-29.08,1c-9.85,3.34-16,10.33-18.43,20.5-4,17.32-7.94,34.48-11.76,51.8-.79,3.81-1.75,7.63-2.54,11.44-.32,1.27-.64,2.7-1,4a1.84,1.84,0,0,0,1.59,0c3.49-1.27,7-2.7,10.32-4,17.64-6.67,35.28-13.51,52.92-20.18A23.07,23.07,0,0,0,83.92,208C91.07,194.3,89.8,180.32,83.92,166.65Zm-2.38,31.62a19.52,19.52,0,0,1-11.13,11.6c-17.16,7.15-34.48,14.3-51.64,21.45-.63.32-1.43,1-1.91.16s-.31-2.06,0-3c1.59-7.62,3-15.09,4.61-22.72l5.72-28.6c2.7-13.83,10.17-19.07,23.2-21.61a38.18,38.18,0,0,1,8.58-.32,29,29,0,0,1,11.44,2.07c5.41,2.22,8.74,6.51,10.81,11.91C84.4,178.89,85.35,188.58,81.54,198.27Z"/><path class="cls-2" d="M86.3,197.8a22.12,22.12,0,0,1-11.91,12.87c-18.6,7.94-37.35,15.73-56.1,23.67-.63.32-1.58,1.12-2.22.32-.79-.95-.32-2.22,0-3.18,1.59-8.26,3.34-16.52,5.08-24.94q3.11-15.73,6.2-31.47c2.86-15.09,11-21,25.27-23.83a36.28,36.28,0,0,1,9.37-.32,30.74,30.74,0,0,1,12.4,2.22c5.88,2.55,9.53,7.16,11.6,13.19C89.48,176.5,90.44,187.15,86.3,197.8Z"/><path class="cls-3" d="M85.19,184.92a14.29,14.29,0,0,1-8.42,8.74c-13,5.41-26.22,10.81-39.41,16.21-.47.16-1.11.64-1.43.16-.47-.63-.16-1.43,0-2.22,1.11-5.72,2.39-11.44,3.5-17,1.43-7.15,2.86-14.46,4.29-21.61,2.06-10.32,7.78-14.46,17.64-16.36a22.07,22.07,0,0,1,6.51-.16,24.07,24.07,0,0,1,8.74,1.43,14.33,14.33,0,0,1,8.1,9.06C87.42,170.46,88.05,177.77,85.19,184.92Z"/><path class="cls-4" d="M83,172.85a8.88,8.88,0,0,1-4.77,5.08c-7.47,3-14.94,6.2-22.41,9.22-.31.16-.63.48-.79.16-.32-.32-.16-.8,0-1.27.64-3.18,1.27-6.52,2.07-9.7.79-4.13,1.74-8.26,2.38-12.39,1.11-5.88,4.45-8.26,10.17-9.38a14.42,14.42,0,0,1,3.65-.15,13.26,13.26,0,0,1,4.93.79,8.12,8.12,0,0,1,4.61,5.09C84.24,164.59,84.56,168.72,83,172.85Z"/><g class="cls-5"><path class="cls-6" d="M90.59,170.78c-4.76-15.57-14.46-19.07-26.53-21.13-3.82.32-7.79-.64-11.6-.16a56.84,56.84,0,0,0-12.56,2.38c-12.23,3.66-19.86,11.6-22.56,24-5.4,23.36-10.8,46.56-16,69.75-.47,2.07-1.27,4-1.11,6a2.77,2.77,0,0,1,1-.16C25,242.45,48.8,233.23,72.8,224.33c10.33-3.81,16.2-11.28,19.07-21.61C94.88,191.92,93.77,181.27,90.59,170.78Zm-6.51,35.44A22.1,22.1,0,0,1,71.84,216.7c-20.18,7.63-40.2,15.26-60.38,22.89-.48.16-.79.47-1.43,0,1.11-4.77,2.23-9.7,3.34-14.46,3.81-16.37,7.47-32.58,11.28-48.94,2.22-9.7,8.1-16.21,17.64-19.39a47.27,47.27,0,0,1,27.81-1c6.51,1.74,11.6,5.24,14.14,11.44C89.8,180.16,90.91,193.35,84.08,206.22Z"/><path class="cls-7" d="M84.08,206.22A22.1,22.1,0,0,1,71.84,216.7c-20.18,7.63-40.2,15.26-60.38,22.89-.48.16-.79.47-1.43,0,1.11-4.77,2.23-9.7,3.34-14.46,3.81-16.37,7.47-32.58,11.28-48.94,2.22-9.7,8.1-16.21,17.64-19.39a47.27,47.27,0,0,1,27.81-1c6.51,1.74,11.6,5.24,14.14,11.44C89.8,180.16,90.91,193.35,84.08,206.22Z"/></g><path class="cls-1" d="M188,5.84c-.32-4.29-2.38-5.72-6.67-4.76a201.76,201.76,0,0,0-57.84,24.47c-15.42,9.69-28.76,21.29-38.93,36.54A350.14,350.14,0,0,0,63,99.6c-1.12,2.06-1.91,3-4.61,2.86-9.7-1-18.28,2.22-24.63,9.53-4,4.45-7,9.69-10.49,14.62a.16.16,0,0,1-.16-.16c-3,4.13-5.88,8.26-8.74,12.39-1.27,1.59-2.06,3.34-1.11,5.41,1.11,2.22,3,2.54,5.08,2.54,9.06.16,18,.48,26.86.79a5.92,5.92,0,0,1,3.18,1.12c14.93,10.48,29.87,21,44.65,31.62A8,8,0,0,1,95,182.86c3.34,8.42,6.52,17,9.86,25.58.63,1.75,1.58,3.18,3.65,3.5s3.5-.8,4.77-2.39c5.72-8.1,11.44-16,17-24.15,6.83-9.85,7.47-20.34,2.38-31.3-.63-1.27-.47-1.75.48-2.86,7.47-8.26,14.78-16.37,22.09-24.79,9.21-10.81,17-22.41,22.08-35.75C187.84,63.37,190.22,34.92,188,5.84ZM46.26,136.94c-.48,1.43-1.27,1.9-2.86,1.9-5.72-.31-11.6-.47-17.32-.63-.16,0-.16-.16-.32-.16,5.09-7.15,9.7-14.46,15.1-21.13,3.81-4.77,11.12-6.84,16.52-5.88-1.59,3.49-3,7-4.6,10.48C50.55,126.77,48.49,131.85,46.26,136.94Zm78,41.63c-4.29,6.67-9.06,13-13.82,19.7a14.77,14.77,0,0,1-.8-1.75c-1.9-5.08-4-10.16-5.88-15.41a2.56,2.56,0,0,1,.48-2.38c6.83-6.52,14-13,21.13-19.71C128.09,166,127.94,172.53,124.28,178.57ZM170.2,85c-4.92,13.5-12.71,25.26-21.77,36.23C133.34,139.64,116.18,156,98.7,171.89a9.33,9.33,0,0,1-1.27,1c-14.62-10.33-29.24-20.66-43.86-31.15,2.7-6.19,5.4-12.55,8.1-18.75A399.07,399.07,0,0,1,88.85,71.47C99,55.1,112.52,42.55,128.73,32.7a191.84,191.84,0,0,1,49.74-21.61,6.87,6.87,0,0,1,1.27-.32c.16,3.81.32,7.47.32,11.28C180.21,43.34,177.67,64.48,170.2,85Z"/><path class="cls-3" d="M57.38,111.19c-1.59,3.5-3,7-4.6,10.49-2.23,5.09-4.45,10.17-6.52,15.26-.48,1.43-1.27,1.9-2.86,1.9-5.72-.31-11.6-.47-17.32-.63-.16,0-.16-.16-.32-.16,5.09-7.15,9.7-14.46,15.1-21.13C44.67,112.31,52,110.24,57.38,111.19Z"/><path class="cls-3" d="M124.28,178.57c-4.29,6.67-9.06,13-13.82,19.7a14.77,14.77,0,0,1-.8-1.75c-1.9-5.08-4-10.16-5.88-15.41a2.56,2.56,0,0,1,.48-2.38c6.83-6.52,14-13,21.13-19.71C128.09,166,127.94,172.53,124.28,178.57Z"/><path class="cls-3" d="M180.06,21.89c.15,21.61-2.39,42.75-9.86,63.09-4.92,13.5-12.71,25.26-21.77,36.23C133.34,139.64,116.18,156,98.7,171.89a9.33,9.33,0,0,1-1.27,1c-14.62-10.33-29.24-20.66-43.86-31.15,2.7-6.19,5.4-12.55,8.1-18.75A399.07,399.07,0,0,1,88.85,71.47C99,55.1,112.52,42.55,128.73,32.7a191.84,191.84,0,0,1,49.74-21.61,6.87,6.87,0,0,1,1.27-.32C179.74,14.42,180.06,18.08,180.06,21.89Z"/><g class="cls-8"><path class="cls-9" d="M187.68,5.05C187.36.76,185.3-.67,181,.28a202,202,0,0,0-57.84,24.47c-15.41,9.7-28.76,21.3-38.93,36.55A351,351,0,0,0,62.63,98.8c-1.11,2.07-1.91,3-4.61,2.86-9.69-1-18.27,2.23-24.63,9.53-4,4.45-7,9.7-10.49,14.62a.16.16,0,0,1-.16-.16c-3,4.14-5.88,8.27-8.74,12.4-1.27,1.59-2.06,3.34-1.11,5.4C14,145.68,15.91,146,18,146c9.05.16,18,.48,26.85.8A6,6,0,0,1,48,147.9c14.94,10.49,29.87,21,44.65,31.62a8.29,8.29,0,0,1,2.07,2.54c3.33,8.43,6.51,17,9.85,25.59.63,1.75,1.59,3.18,3.65,3.49s3.5-.79,4.77-2.38c5.72-8.1,11.44-16,17-24.15,6.83-9.85,7.47-20.34,2.38-31.31-.63-1.27-.47-1.74.48-2.86,7.47-8.26,14.78-16.36,22.09-24.79,9.22-10.8,17-22.4,22.09-35.75C187.52,62.57,189.91,34.13,187.68,5.05ZM45.94,136.14c-.47,1.43-1.27,1.91-2.86,1.91-5.72-.32-11.6-.48-17.32-.64-.16,0-.16-.16-.32-.16,5.09-7.15,9.7-14.46,15.1-21.13,3.81-4.77,11.12-6.83,16.53-5.88-1.59,3.5-3,7-4.61,10.49C50.23,126,48,131.06,45.94,136.14Zm77.86,41.63c-4.29,6.68-9,13-13.82,19.71a13.71,13.71,0,0,1-.79-1.75c-1.91-5.08-4-10.17-5.88-15.41a2.6,2.6,0,0,1,.47-2.39c6.84-6.51,14-13,21.14-19.7C127.78,165.22,127.62,171.89,123.8,177.77Zm46.09-93.59c-4.93,13.51-12.72,25.27-21.77,36.23-15.1,18.43-32.26,34.8-49.74,50.69a8.07,8.07,0,0,1-1.27,1c-14.62-10.32-29.24-20.65-43.86-31.14,2.7-6.2,5.4-12.55,8.11-18.75A396.47,396.47,0,0,1,88.53,70.68C98.7,54.31,112.2,41.76,128.41,31.9a192.18,192.18,0,0,1,49.74-21.61,6.46,6.46,0,0,1,1.27-.31c.16,3.81.32,7.46.32,11.28C179.74,42.71,177.19,63.68,169.89,84.18Z"/><path class="cls-10" d="M179.42,21.89C179.58,43.5,177,64.64,169.57,85c-4.93,13.5-12.71,25.26-21.77,36.23-15.1,18.43-32.26,34.79-49.74,50.68a8.74,8.74,0,0,1-1.27,1c-14.62-10.33-29.24-20.66-43.86-31.15,2.71-6.19,5.41-12.55,8.11-18.75A397.77,397.77,0,0,1,88.21,71.47C98.38,55.1,111.89,42.55,128.09,32.7a192,192,0,0,1,49.74-21.61,7.34,7.34,0,0,1,1.27-.32C179.1,14.42,179.42,18.08,179.42,21.89Z"/></g><circle class="cls-1" cx="141.76" cy="63.37" r="18.59"/><circle class="cls-4" cx="152.37" cy="57.29" r="4.41"/><circle class="cls-4" cx="154.05" cy="65.7" r="2.12"/><path d="M216.59,64.67a12.92,12.92,0,0,1,4.06-9.77A14.33,14.33,0,0,1,230.92,51a14.72,14.72,0,0,1,10.32,3.86,12.67,12.67,0,0,1,4.21,9.77,12.67,12.67,0,0,1-4.21,9.77,14.71,14.71,0,0,1-10.32,3.85,14.28,14.28,0,0,1-10.22-3.9A12.88,12.88,0,0,1,216.59,64.67Zm2.31,147.89V101.74h23.54V212.56Z"/><path d="M361.47,212.56H338V149.94q0-32-23.25-32a24.53,24.53,0,0,0-19.39,8.86q-7.67,8.86-7.66,22.5v63.22H264.18V101.74h23.55v18.14h.5q12.31-20.75,36.07-20.74,37.17,0,37.17,45.69Z"/><path d="M441,67.77A28.11,28.11,0,0,0,428.88,65Q411,65,411,86.51v15.23h25.65v18.64H411v92.18H387.59V120.38H368.76V101.74h18.83V85.31q0-18.14,10.93-28.71t28-10.57A44.42,44.42,0,0,1,441,48Z"/><path d="M435.8,158.15q0-27.35,15.58-43.18t42.43-15.83q25.35,0,40.08,15.33t14.73,41.88q0,26.76-15.53,42.79t-41.48,16q-25.46,0-40.63-15.53T435.8,158.15Zm23.95-.5q0,18.24,8.86,28.46t24.1,10.22q32,0,32-39.38,0-19-8.21-29t-23.75-10q-15.52,0-24.25,10.62T459.75,157.65Z"/><path d="M628.65,208.86q0,26.74-11.37,41.28t-32.52,14.53a36.81,36.81,0,0,1-15.33-3.41V241.12q7.62,4.51,14.33,4.51,21.35,0,21.34-34V101.74h23.55ZM602.8,64.67a12.89,12.89,0,0,1,4.06-9.77A14.31,14.31,0,0,1,617.13,51a14.74,14.74,0,0,1,10.32,3.86,13.44,13.44,0,0,1,0,19.54,14.73,14.73,0,0,1-10.32,3.85,14.26,14.26,0,0,1-10.22-3.9A12.88,12.88,0,0,1,602.8,64.67Z"/><path d="M713.31,124.19q-5.2-3.41-13.83-3.41-11.41,0-18.48,10t-7.06,26.55v55.21H650.39V101.74h23.55v22.05h.5q8.2-24,29-24a27.94,27.94,0,0,1,9.82,1.4Z"/><path d="M684,200.2a12,12,0,0,1,4-9.23,14.36,14.36,0,0,1,19.11,0,11.89,11.89,0,0,1,4,9.27,12.34,12.34,0,0,1-3.84,9.1,14.38,14.38,0,0,1-19.38.09A12.1,12.1,0,0,1,684,200.2Z"/></g></g></g></svg>