<svg xmlns="http://www.w3.org/2000/svg" viewBox="0 0 230.4 230.4"><defs><style>.a,.b{fill:#ED157B;}.a{fill-rule:evenodd;}</style></defs><path class="a" d="M133.13,74.57c.74.6,1,.43,2.23.41,8.37-.1,7.1-1,10.63,2.57l10.56,10.56c3.78,3.78,3.79,2.65,3.78,6.78,0,1.76,0,3.53,0,5.29,0,2.59.14,2.57,1.43,3.84a57.63,57.63,0,0,0,5.29,5.2c2.32-.68,3.76-1.18,5.5.81a4,4,0,0,1-.11,5.37c-2.78,2.95-8.28,1.07-6.56-4.91a74.34,74.34,0,0,0-5.37-5.46c-2.53-2.52-1.86-1.8-1.86-8.94,0-2,.45-3.12-1-4.52L144.2,78.14c-1.75-1.76-1-1.5-4-1.49h-5.29c-3,0-3.55-1.52-6.41-4.39-1.09-1.09-4.93-4.32-5.1-5.69-3.52,0-9.24-.36-12.49,0-1.29.14-5.6,5-6.52,6s-.67.79-2.34.78l-15.61,0c-3.37,0-2.56,0-4.38,1.86L69.55,87.64c-.78.78-12.18,11.69-12.18,12.53v11.52c1.74-1.2,12.44-12.33,14.2-14.1,2.42-2.42,4.67-4.66,7.08-7.08l5.28-5.28c.84-.86.69-1.15,2.23-1.15h23.28c1.31,0,1.19.07,1.87.78l3.92,4c5.36-2.22,8.36,3.16,5.24,6.26a4.14,4.14,0,0,1-5.54.28c-2.24-1.73-1-3.89-.93-5.55-.45-.46-.78-.79-1.2-1.2-.89-.89-2.55-3.1-3.84-3.1H86.65c-1.23,0-1.28.41-2,1.13-2.93,3-8.24,7.6-10.38,10.49.46.48,1,1,1.45,1.44l.49.46,6.48,6.48c.34.35.39.44.69.75l6.13,6.12c.63.59,1,1,1.56,1.56s.87.85,1.43,1.44c1.43,1.47,1.67,2.3,4,2.28h12.25c1.92,0,3.77-.49,5.11.89l15.23,15.25c.71.71,2.8,2.24,2.25,3.3-1.34.71-2.78-1.43-3.57-2.22l-9.12-9.12c-8.34-8.32-3.94-6.42-17.82-6.42-5.27,0-5.72.91-8-1.37-3.12-3.16-18.34-17.9-19.63-19.74-1.84,1.26-7.42,7.31-9.41,9.3l-4.67,4.68c-1.13,1.12-1.76,1.26-1.77,3v9.39c0,1.65.86,1.9,1.76,2.8,1.48,1.49,3,3.38,4.66,4.7,1.1.91,7.06.4,9,.4h9.36v-8.4c0-.72-5.17-5.64-6-6.27-6.31,1.88-7.62-4.27-5-6.61,3-2.65,8.51-.16,6.19,5.41,1.24,1,2.33,2.28,3.51,3.45,1,1,2.94,2.29,2.94,3.78l0,8.64c6,0,3.9-.55,10.23,5.82,2.24,2.24,3.32,4,5.08,4,3.35.07,19.37-.36,20.85,0,.92.26,8.1,7.82,9,8.76.66.69.7,1,2.08,1,.94,0,1.95,0,2.9,0,1.83,0,7.27.27,8.86,0,1-.18,5.22-4.71,6.22-5.79.74-.79.54-.9.53-2.35,0-1.93,0-3.85,0-5.77,0-2.89.58-4.12-1.07-5.7l-4-4-5.28-5.28L126,110.07c-.6-.6-2.1-2.27-2.63-2.65-2.12-1.5-18.1.85-20.39-.71-.65-.45-4.69-4.59-5.27-5.3-5.54,2.34-8.08-3.16-5.42-6.21,2.32-2.65,8.5-1.36,6.61,5a50.71,50.71,0,0,0,4,4.16c1.19,1.23.88,1.15,3,1.13l16.34,0c2,0,1.78.21,2.81,1.27,1.62,1.66,14.76,15.17,16.38,16.26v-22.8c0-1.57.29-2.44-.52-3.32-3.65-3.94-14-13.43-16.79-16.8-5.39,2.32-8.31-3.32-5.3-6.33a4.63,4.63,0,0,1,5.6-.21A4.26,4.26,0,0,1,125.71,76c.23,1.53-.28,1.84-.47,3.06l3.31,3.23.12.11,1.92,1.92.11.12,9.73,9.72c.56.58.75.8,1.32,1.33l.12.11.25.24s.19.18.23.23.51.69.51.69c.55,1.2.19,22.57.19,25,0,2.62-.43,2.64,1,4,.91.87,1.63,1.62,2.52,2.51,5.13,5.13,4.62,3,4.62,10.74h7.92c.76,0,8.33-7.94,8.72-8.47l-9.44-9.32c-6.2,1.86-7.67-4.25-5-6.61,3-2.66,8.54-.13,6.2,5.41,1.6,1.3,3.51,3.46,5.07,5l2.52,2.52c1.33,1.33,1,1.76,2.69,1.66,2.77-.18,5.55.58,6.81-.68,1-1,5.92-5.58,5.92-6.32V100.17c0-.75-2.13-2.48-2.7-3.06L151.39,68.56c-1.1-1.11-1.24-2-3.53-2-7.51.08-15.05,0-22.57,0Z" transform="translate(-4.8 -4.8)"/><path class="a" d="M83.05,142.41c-1,.56-1.1,3.44-4.77,3.09-5-.49-4.65-7.88.22-8.11,2.82-.13,3.39,1.43,4.31,3.28,1.52.16,4.29.44,5.28-.42l2.76-2.76a28.5,28.5,0,0,0-3-3c-1.21-.64-4-.2-5.56-.2H70.57c0,2.31-.06,4.69,0,7,0,1.55.39,1.45,1.28,2.32L77,148.7c1.13.6,5.15.19,6.76.19v14.17c0,2.56-.26,2.06,1.14,3.41.68.66,1.72,2.06,2.52,2.28l13.62.06c3.24,0,2,.5,5.94-3.42,1.91-1.91,3.12-2.54,3.2-4,0-.64,0-1.51,0-2.18,0-2.43-.36-3.33.52-4.28,2.5-2.7,2.86-1.83,2.86-4.1l0-6.74h-5c0,2.75.42,4.06-.77,5.24-1,.94-5.59,5-5.76,6.28-.12,1,.17,1.81-.15,2.69s-.77.87-1.28,1.63c1.86,6.33-4.28,7.63-6.6,5-2.66-3.05-.13-8.54,5.41-6.2.68-.84.94-.5,1-1.87.15-3.12-.76-1.79,2.81-5.36,4.31-4.3,3.72-2.7,3.64-7.38H98.65c0,1.62.1,1.85-.82,2.79l-.11.12-3.83,3.81c.37,2.43.69,4.3-1.25,5.51a4.56,4.56,0,0,1-5.44-.54c-2.84-3.23.19-8.45,5.45-6.18a18.1,18.1,0,0,0,2.7-2.57c.79-.79,2.12-1.44,1.57-3.35-.22-.74-4.17-4.54-5-5.1a34.93,34.93,0,0,1-3.17,3.32C87.82,142.78,85.34,142.41,83.05,142.41Z" transform="translate(-4.8 -4.8)"/><path class="a" d="M120.67,74.4a2.5,2.5,0,1,0,2.1,4.54C125.5,77.84,124,72.93,120.67,74.4Z" transform="translate(-4.8 -4.8)"/><path class="a" d="M94.27,95.76a2.5,2.5,0,1,0,2.09,4.54C99.11,99.18,97.55,94.29,94.27,95.76Z" transform="translate(-4.8 -4.8)"/><path class="a" d="M116.59,90a2.5,2.5,0,1,0,2.09,4.54C121.43,93.44,119.88,88.52,116.59,90Z" transform="translate(-4.8 -4.8)"/><path class="a" d="M167.05,113.37a2.5,2.5,0,0,0,4.81-1.4C171.22,109.07,166.17,109.8,167.05,113.37Z" transform="translate(-4.8 -4.8)"/><path class="a" d="M87.85,153.69a2.51,2.51,0,0,0,4.81-1.4C92,149.39,87,150.11,87.85,153.69Z" transform="translate(-4.8 -4.8)"/><path class="a" d="M76.33,142.17a2.51,2.51,0,0,0,4.81-1.4C80.49,137.88,75.43,138.59,76.33,142.17Z" transform="translate(-4.8 -4.8)"/><path class="a" d="M153.85,118.41a2.51,2.51,0,0,0,4.81-1.4C158,114.11,153,114.83,153.85,118.41Z" transform="translate(-4.8 -4.8)"/><path class="a" d="M94.57,162.81a2.51,2.51,0,0,0,4.81-1.4C98.73,158.51,93.68,159.23,94.57,162.81Z" transform="translate(-4.8 -4.8)"/><path class="a" d="M71.53,115.05a2.51,2.51,0,0,0,4.81-1.4C75.69,110.76,70.66,111.47,71.53,115.05Z" transform="translate(-4.8 -4.8)"/><path class="b" d="M120,206.2h-1.23v-.56c1.73,0,3.47,0,5.17-.08l0,.56C122.67,206.17,121.33,206.2,120,206.2Zm-2.93,0c-1.32,0-2.65-.12-4-.22l0-.57c1.31.11,2.64.18,4,.23Zm8.61-.13,0-.57c1.31-.08,2.63-.2,3.93-.35l.07.57C128.33,205.81,127,205.93,125.68,206Zm-14.28-.24c-1.32-.13-2.64-.3-4-.49l.08-.56c1.3.19,2.62.35,3.92.48Zm19.94-.32-.08-.56c1.3-.18,2.62-.38,3.91-.61l.1.55C134,205.08,132.65,205.29,131.34,205.46ZM105.76,205c-1.3-.21-2.61-.47-3.91-.74l.12-.56c1.29.28,2.59.53,3.89.74Zm31.19-.49-.11-.56c1.27-.26,2.57-.55,3.85-.87l.14.55C139.54,204,138.23,204.27,137,204.53Zm-36.76-.63c-1.28-.3-2.58-.64-3.85-1l.15-.54c1.27.36,2.56.7,3.83,1Zm42.29-.68-.15-.55c1.27-.34,2.55-.72,3.79-1.12l.18.54C145,202.5,143.76,202.88,142.48,203.22Zm-47.78-.81c-1.26-.39-2.53-.82-3.77-1.26l.19-.54c1.24.45,2.5.87,3.75,1.25Zm53.22-.86-.18-.54c1.23-.42,2.48-.89,3.72-1.37l.2.53C150.43,200.66,149.17,201.12,147.92,201.55Zm-58.59-1c-1.24-.47-2.47-1-3.68-1.5l.23-.52c1.2.52,2.42,1,3.65,1.49Zm63.92-1L153,199c1.21-.5,2.43-1.05,3.61-1.61l.25.51C155.69,198.46,154.47,199,153.25,199.52ZM84.1,198.35c-1.2-.55-2.4-1.14-3.57-1.75l.26-.5c1.16.6,2.36,1.19,3.55,1.73Zm74.32-1.21-.25-.51c1.18-.59,2.35-1.21,3.5-1.85l.27.49C160.79,195.92,159.61,196.54,158.42,197.14ZM79,195.81c-1.16-.63-2.32-1.3-3.45-2l.29-.49c1.13.68,2.28,1.34,3.43,2Zm84.4-1.39-.29-.49c1.12-.66,2.25-1.36,3.37-2.08l.31.48C165.7,193.05,164.55,193.76,163.43,194.42Zm-89.3-1.49c-1.11-.7-2.22-1.44-3.31-2.2l.33-.46c1.08.75,2.18,1.49,3.29,2.18Zm94.11-1.55-.32-.47c1.08-.73,2.17-1.5,3.22-2.29l.34.45C170.42,189.87,169.33,190.64,168.24,191.38Zm-98.81-1.64c-1.07-.78-2.13-1.59-3.16-2.41l.36-.44c1,.82,2.07,1.62,3.14,2.4ZM172.84,188l-.35-.44c1-.81,2.07-1.66,3.06-2.51l.37.44C174.92,186.37,173.88,187.22,172.84,188ZM65,186.25c-1-.84-2-1.72-3-2.61l.38-.42c1,.88,2,1.76,3,2.6Zm112.26-1.86-.38-.42c1-.87,2-1.78,2.9-2.7l.39.41C179.18,182.6,178.2,183.51,177.21,184.39ZM60.7,182.47c-1-.9-1.9-1.84-2.82-2.8l.41-.39c.91.95,1.86,1.88,2.8,2.78Zm120.63-2-.4-.4c.92-.94,1.83-1.9,2.71-2.88l.42.38C183.18,178.56,182.26,179.54,181.33,180.48Zm-124.62-2c-.89-1-1.78-2-2.63-3l.43-.36c.85,1,1.73,2,2.62,3Zm128.48-2.13-.43-.37c.86-1,1.7-2,2.52-3.05l.44.36C186.9,174.28,186.05,175.31,185.19,176.3ZM53,174.13c-.83-1-1.65-2.09-2.43-3.15l.45-.34c.78,1.06,1.6,2.11,2.42,3.13Zm135.77-2.24-.45-.35c.79-1,1.57-2.12,2.31-3.2l.47.32C190.34,169.75,189.56,170.84,188.76,171.89Zm-139.2-2.3c-.76-1.07-1.51-2.18-2.23-3.3l.48-.31c.71,1.11,1.46,2.22,2.21,3.28ZM192,167.25l-.47-.32c.72-1.09,1.43-2.21,2.1-3.34l.48.29C193.48,165,192.77,166.15,192,167.25ZM46.43,164.84c-.7-1.14-1.37-2.3-2-3.45l.5-.27c.63,1.14,1.3,2.29,2,3.42ZM195,162.4l-.49-.28c.64-1.14,1.27-2.31,1.87-3.47l.5.26C196.29,160.08,195.66,161.26,195,162.4Zm-151.4-2.51c-.61-1.18-1.21-2.38-1.77-3.57l.52-.24c.55,1.18,1.15,2.38,1.76,3.54Zm154-2.51-.51-.24c.57-1.18,1.12-2.39,1.64-3.6l.52.23C198.78,155,198.22,156.19,197.65,157.38ZM41.13,154.76c-.53-1.22-1.05-2.46-1.53-3.68l.53-.21c.48,1.22,1,2.45,1.52,3.66ZM200,152.2l-.53-.21c.5-1.22,1-2.46,1.4-3.69l.53.18C200.92,149.73,200.44,151,200,152.2ZM39,149.48c-.45-1.25-.89-2.52-1.28-3.78l.54-.17c.39,1.25.82,2.52,1.27,3.75Zm162.91-2.61-.54-.18c.41-1.24.79-2.52,1.15-3.78l.54.15C202.71,144.33,202.32,145.61,201.91,146.87ZM37.22,144.06c-.37-1.27-.71-2.56-1-3.85l.55-.13c.31,1.28.65,2.56,1,3.82Zm166.28-2.65-.54-.14c.32-1.27.62-2.56.89-3.85l.56.12C204.14,138.83,203.83,140.13,203.5,141.41ZM35.81,138.55c-.28-1.28-.54-2.59-.76-3.91l.55-.09c.23,1.3.49,2.61.77,3.88Zm168.93-2.69-.56-.1c.24-1.28.45-2.6.64-3.9l.56.07C205.19,133.25,205,134.57,204.74,135.86Zm-170-2.9c-.2-1.31-.37-2.64-.5-4l.56-.06c.14,1.31.31,2.63.5,3.92Zm170.83-2.72-.57-.06c.16-1.3.29-2.63.38-3.94l.57,0C205.88,127.6,205.75,128.94,205.6,130.24ZM34.11,127.31c-.12-1.31-.2-2.65-.25-4l.57,0c0,1.31.13,2.64.24,3.94Zm172-2.73-.56,0c.07-1.32.11-2.65.11-4h.57C206.19,121.91,206.15,123.25,206.08,124.58Zm-172.27-3c0-.54,0-1.08,0-1.63,0-.78,0-1.57,0-2.35l.57,0c0,.77,0,1.55,0,2.33,0,.54,0,1.08,0,1.62Zm171.82-2.73c0-1.32-.06-2.65-.14-4l.57,0c.07,1.31.12,2.65.14,4ZM34.46,116l-.57,0c.06-1.32.16-2.66.28-4l.56,0C34.61,113.34,34.52,114.66,34.46,116Zm170.91-2.72c-.1-1.31-.23-2.64-.4-3.93l.57-.07c.16,1.3.29,2.63.4,3.95ZM34.91,110.35l-.57-.07c.15-1.31.33-2.64.54-3.94l.56.09C35.23,107.72,35.05,109,34.91,110.35Zm169.84-2.7c-.2-1.31-.42-2.62-.67-3.9l.56-.11c.25,1.29.48,2.61.67,3.92Zm-169-2.89-.56-.1c.24-1.31.5-2.62.8-3.9l.55.13C36.23,102.16,36,103.46,35.73,104.76Zm168-2.67c-.28-1.28-.59-2.57-.92-3.85l.55-.14c.33,1.28.64,2.58.92,3.87ZM36.92,99.24l-.55-.14c.32-1.28.67-2.57,1.05-3.84l.55.17C37.59,96.68,37.24,98,36.92,99.24Zm165.46-2.63c-.36-1.26-.75-2.54-1.17-3.79l.53-.18c.43,1.26.82,2.54,1.18,3.81ZM38.47,93.81l-.54-.18c.41-1.25.85-2.52,1.31-3.75l.53.19C39.31,91.3,38.87,92.56,38.47,93.81Zm162.18-2.6c-.45-1.24-.93-2.48-1.43-3.69l.53-.22c.5,1.22,1,2.47,1.43,3.72ZM40.38,88.5l-.52-.21c.48-1.23,1-2.46,1.55-3.66l.51.24C41.39,86.06,40.87,87.28,40.38,88.5ZM198.56,86c-.53-1.2-1.09-2.41-1.67-3.59l.51-.25c.59,1.19,1.15,2.4,1.68,3.62ZM42.64,83.34l-.52-.25c.57-1.19,1.17-2.38,1.8-3.54l.5.26C43.8,81,43.2,82.16,42.64,83.34Zm153.49-2.5c-.6-1.16-1.24-2.33-1.9-3.47l.49-.28c.66,1.15,1.31,2.32,1.91,3.49ZM45.23,78.33l-.5-.28c.65-1.15,1.33-2.3,2-3.42l.48.3C46.54,76,45.87,77.19,45.23,78.33Zm148.13-2.42c-.67-1.11-1.38-2.24-2.12-3.34l.47-.32c.75,1.11,1.46,2.25,2.14,3.36ZM48.15,73.5l-.48-.31c.72-1.1,1.47-2.21,2.24-3.28l.46.33C49.61,71.31,48.86,72.41,48.15,73.5Zm142.13-2.33C189.54,70.1,188.75,69,188,68l.45-.34c.81,1.05,1.6,2.13,2.35,3.21ZM51.37,68.87l-.45-.34c.79-1,1.62-2.11,2.45-3.13l.44.36C53,66.78,52.16,67.82,51.37,68.87ZM186.9,66.64c-.82-1-1.68-2-2.54-3l.43-.38c.87,1,1.73,2,2.55,3.06Zm-132-2.18-.43-.36c.85-1,1.75-2,2.65-3l.42.39C56.64,62.48,55.75,63.47,54.9,64.46Zm128.33-2.12c-.89-1-1.8-1.93-2.73-2.85l.4-.41c.93.94,1.86,1.91,2.75,2.88ZM58.71,60.29l-.41-.39c.93-.95,1.88-1.89,2.84-2.79l.39.42C60.58,58.42,59.62,59.35,58.71,60.29Zm120.58-2c-.95-.91-1.93-1.81-2.91-2.68l.37-.42c1,.87,2,1.77,2.93,2.69ZM62.78,56.38,62.4,56c1-.89,2-1.76,3-2.6l.36.44C64.76,54.63,63.75,55.5,62.78,56.38Zm112.31-1.86c-1-.85-2-1.68-3.08-2.48l.35-.45c1,.81,2.08,1.64,3.1,2.5Zm-108-1.78-.35-.45c1-.82,2.1-1.62,3.18-2.39l.33.46C69.19,51.12,68.13,51.92,67.1,52.74ZM170.66,51c-1.06-.77-2.15-1.54-3.24-2.27l.32-.47c1.09.74,2.19,1.5,3.25,2.29Zm-99-1.64-.32-.46c1.09-.75,2.21-1.49,3.33-2.18l.3.48C73.84,47.91,72.73,48.64,71.65,49.38ZM166,47.83c-1.11-.71-2.24-1.4-3.38-2l.29-.5c1.14.66,2.28,1.36,3.39,2.07Zm-89.6-1.5-.29-.48c1.13-.68,2.3-1.33,3.47-2l.27.5C78.7,45,77.54,45.67,76.41,46.33Zm84.75-1.39c-1.14-.63-2.32-1.24-3.5-1.82l.25-.51c1.19.58,2.38,1.2,3.53,1.84ZM81.37,43.61l-.26-.51c1.18-.6,2.39-1.18,3.59-1.72l.24.51C83.74,42.43,82.54,43,81.37,43.61Zm74.77-1.22c-1.19-.56-2.4-1.09-3.61-1.59l.22-.53c1.21.5,2.43,1,3.63,1.6ZM86.49,41.21l-.22-.52c1.22-.52,2.46-1,3.7-1.48l.2.53C88.94,40.2,87.7,40.69,86.49,41.21Zm64.47-1c-1.22-.48-2.47-.93-3.72-1.35l.18-.54c1.26.42,2.52.88,3.75,1.36Zm-59.19-1-.19-.54c1.26-.44,2.53-.85,3.8-1.23l.16.54C94.28,38.31,93,38.72,91.77,39.16Zm53.86-.87c-1.25-.39-2.53-.76-3.8-1.1l.15-.55c1.27.34,2.56.71,3.82,1.11Zm-48.46-.83L97,36.92c1.27-.36,2.57-.69,3.85-1l.13.55C99.72,36.79,98.43,37.11,97.17,37.46Zm43-.69c-1.27-.3-2.57-.59-3.86-.84l.11-.56c1.3.26,2.6.54,3.89.85Zm-37.53-.64-.12-.55c1.3-.27,2.61-.51,3.92-.72l.09.56C105.25,35.63,103.94,35.87,102.66,36.13Zm32-.51c-1.29-.22-2.6-.42-3.91-.58l.07-.57c1.32.17,2.64.37,3.94.59Zm-26.44-.45-.08-.56c1.31-.18,2.64-.33,4-.45l.05.56C110.84,34.84,109.52,35,108.22,35.17Zm20.85-.33c-1.31-.14-2.63-.25-3.94-.32l0-.57c1.32.08,2.66.19,4,.33Zm-15.23-.26,0-.56c1.31-.1,2.65-.16,4-.19l0,.56C116.47,34.43,115.14,34.49,113.84,34.58Zm9.6-.15c-1.14,0-2.29-.07-3.44-.07h-.52V33.8H120c1.15,0,2.32,0,3.46.07Z" transform="translate(-4.8 -4.8)"/><path class="a" d="M120,26.4A93.6,93.6,0,1,1,26.4,120,93.6,93.6,0,0,1,120,26.4Zm64.68,28.92A91.47,91.47,0,1,0,211.47,120,91.15,91.15,0,0,0,184.68,55.32Z" transform="translate(-4.8 -4.8)"/><path class="a" d="M120,4.8A115.2,115.2,0,1,1,4.8,120,115.2,115.2,0,0,1,120,4.8ZM200,40a113.11,113.11,0,1,0,33.11,80A112.75,112.75,0,0,0,200,40Z" transform="translate(-4.8 -4.8)"/><path class="a" d="M16.23,143a2.15,2.15,0,0,0,1.29,1.6,4.13,4.13,0,0,0,2.59.08q3.26-.74,2.7-3.19a7.89,7.89,0,0,0-1.09-2.36l1.74-.4a7.31,7.31,0,0,1,1.11,2.57,4.19,4.19,0,0,1-.55,3.54,5.56,5.56,0,0,1-3.44,2,6.26,6.26,0,0,1-2.78.06,4.11,4.11,0,0,1-2.12-1.19,4.84,4.84,0,0,1-1.16-2.29,6.62,6.62,0,0,1,0-3l1.83.28a10,10,0,0,0-.2,1.2A3.53,3.53,0,0,0,16.23,143Z" transform="translate(-4.8 -4.8)"/><polygon class="a" points="17.87 126.02 18.59 131.73 8.68 132.98 7.96 127.27 9.68 127.06 10.13 130.66 12.31 130.39 11.89 127.03 13.61 126.81 14.04 130.17 16.59 129.85 16.13 126.24 17.87 126.02"/><path class="a" d="M22.15,119.89l.05,2.69-7.47,4.49v.06q2-.16,2.85-.18l4.7-.09,0,1.89-10,.19-.05-2.67,7.4-4.48v-.05c-1.3.1-2.22.15-2.76.16L12.2,122l0-1.91Z" transform="translate(-4.8 -4.8)"/><polygon class="a" points="17.55 108.73 17.37 110.84 9.18 110.16 8.95 112.86 7.2 112.72 7.82 105.2 9.58 105.35 9.35 108.05 17.55 108.73"/><path class="a" d="M17.43,106.48l.09-.68a2.74,2.74,0,0,0-.14-1.51,1.2,1.2,0,0,0-1-.61,1.1,1.1,0,0,0-1.07.35,3.14,3.14,0,0,0-.49,1.47l-.08.63,2.68.35Zm1.71.22,3.8.48-.27,2.11L12.76,108l.37-2.89a5,5,0,0,1,1.12-2.89,2.65,2.65,0,0,1,2.36-.68,2.6,2.6,0,0,1,1.49.68,3.24,3.24,0,0,1,.9,1.5c2.42-1.21,4-2,4.69-2.36l-.3,2.33-4.11,1.88Z" transform="translate(-4.8 -4.8)"/><path class="a" d="M21.28,90.19a5.44,5.44,0,0,1,3.43,2.07,5.33,5.33,0,0,1-1.61,6.86,5.4,5.4,0,0,1-4,.33,5.39,5.39,0,0,1-3.43-2.07,4.62,4.62,0,0,1-.47-3.74,4.53,4.53,0,0,1,2.09-3.12,5.46,5.46,0,0,1,4-.33Zm-1.66,7.1a4.24,4.24,0,0,0,2.6,0,2.24,2.24,0,0,0,1.25-1.66q.59-2.46-2.7-3.23c-2.19-.52-3.47,0-3.86,1.68a2.23,2.23,0,0,0,.4,2A4.11,4.11,0,0,0,19.62,97.29Z" transform="translate(-4.8 -4.8)"/><path class="a" d="M30.37,80.26l-2.48-.19-1.32,3.39L28.52,85l-.83,2.13-8.06-6.94.94-2.41,10.63.36-.83,2.12Zm-4.31-.36-3.82-.28c-.3,0-.53-.05-.69-.08.49.35,1.67,1.28,3.56,2.78Z" transform="translate(-4.8 -4.8)"/><path class="a" d="M26.44,69.5a2.15,2.15,0,0,0,0,2.06,4.14,4.14,0,0,0,1.93,1.72c2,1,3.35.78,4.12-.71a7.9,7.9,0,0,0,.69-2.51l1.58.81a7.07,7.07,0,0,1-.79,2.68,4.26,4.26,0,0,1-2.7,2.37,5.59,5.59,0,0,1-3.91-.71,6.18,6.18,0,0,1-2.17-1.74,4.19,4.19,0,0,1-.86-2.27,4.86,4.86,0,0,1,.58-2.51,6.79,6.79,0,0,1,2-2.28l1.22,1.39c-.33.26-.64.52-.93.79A3.67,3.67,0,0,0,26.44,69.5Z" transform="translate(-4.8 -4.8)"/><path class="a" d="M39.5,64.1l-2.39-.67-2,3.07,1.62,1.89-1.23,1.92L29,61.94l1.4-2.18,10.35,2.42L39.5,64.1Zm-4.16-1.2-3.69-1-.66-.2c.41.44,1.4,1.58,2.95,3.41Z" transform="translate(-4.8 -4.8)"/><path class="a" d="M42.8,51.62a4.91,4.91,0,0,1,2.09,3.44,5.71,5.71,0,0,1-1.49,4l-1.76,2.22-7.82-6.2,1.94-2.46a5.28,5.28,0,0,1,3.37-2.17,4.72,4.72,0,0,1,3.67,1.18Zm-1.32,1.75q-2.52-2-4.29.23l-.7.89,5.1,4,.56-.71C43.42,56.21,43.19,54.73,41.48,53.37Z" transform="translate(-4.8 -4.8)"/><path class="a" d="M52.24,49.14l-4,4.18L41,46.45,45,42.27l1.26,1.2-2.5,2.64,1.6,1.5,2.32-2.45,1.26,1.19L46.6,48.81l1.87,1.77L51,47.94l1.27,1.2Zm-8.71-6.49a6.92,6.92,0,0,1-2,.33,8.59,8.59,0,0,1-.2,2l-1,1-.14-.13A12,12,0,0,0,40,43.14l1.67-1.77a8.37,8.37,0,0,0,1.21.13c.54,0,1,0,1.49,0l.14.13Z" transform="translate(-4.8 -4.8)"/><path class="a" d="M57,45l-6.74-4.66,0,0c1.06,1.2,1.75,2,2.08,2.42l2.88,3.65L53.68,47.6,47.5,39.76,49.76,38l6.58,4.52,0,0-2.77-7.54,2.27-1.79L62.06,41l-1.55,1.22L57.58,38.5c-.13-.18-.29-.38-.47-.61S56.48,37,55.75,36l0,0,2.82,7.73Z" transform="translate(-4.8 -4.8)"/><rect class="b" x="61.1" y="29.88" width="2.12" height="9.99" transform="translate(-13.56 37.18) rotate(-35.02)"/><path class="a" d="M67.48,27.58a2.15,2.15,0,0,0-1.16,1.71,4.16,4.16,0,0,0,.69,2.5c1.11,1.92,2.39,2.47,3.84,1.63a7.57,7.57,0,0,0,1.94-1.73l.89,1.54a7,7,0,0,1-2.12,1.82,4.17,4.17,0,0,1-3.55.52,5.57,5.57,0,0,1-2.9-2.71,6.13,6.13,0,0,1-.87-2.64,4,4,0,0,1,.51-2.38,4.88,4.88,0,0,1,1.84-1.79,6.78,6.78,0,0,1,2.89-.85L69.75,27a11.37,11.37,0,0,0-1.21.17A3.18,3.18,0,0,0,67.48,27.58Z" transform="translate(-4.8 -4.8)"/><path class="a" d="M81.9,24.21a5.44,5.44,0,0,1,.47,4A5.34,5.34,0,0,1,76,31.13a5.44,5.44,0,0,1-2.71-3,5.35,5.35,0,0,1-.47-4,4.6,4.6,0,0,1,2.67-2.67,4.55,4.55,0,0,1,3.75-.26,5.44,5.44,0,0,1,2.7,3Zm-6.63,3a4.17,4.17,0,0,0,1.63,2,2.22,2.22,0,0,0,2.08,0q2.3-1,.9-4.12t-3.7-2a2.24,2.24,0,0,0-1.38,1.56A4.24,4.24,0,0,0,75.27,27.25Z" transform="translate(-4.8 -4.8)"/><path class="a" d="M96,19.78a4.92,4.92,0,0,1-.34,4,5.74,5.74,0,0,1-3.56,2.34l-2.72.76-2.67-9.63,3-.84a5.36,5.36,0,0,1,4,.23A4.74,4.74,0,0,1,96,19.78Zm-2.1.64q-.86-3.11-3.6-2.34l-1.08.3L91,24.65l.88-.25Q94.79,23.59,93.92,20.42Z" transform="translate(-4.8 -4.8)"/><polygon class="a" points="100.27 18.37 94.61 19.42 92.79 9.59 98.45 8.54 98.77 10.25 95.19 10.91 95.59 13.07 98.92 12.46 99.23 14.16 95.91 14.78 96.37 17.31 99.95 16.65 100.27 18.37"/><path class="a" d="M114.3,13.83a2.15,2.15,0,0,0-1.77,1,4.16,4.16,0,0,0-.45,2.55c.18,2.22,1.1,3.27,2.77,3.13a8.05,8.05,0,0,0,2.5-.73l.14,1.77a7,7,0,0,1-2.69.73,4.22,4.22,0,0,1-3.44-1,5.64,5.64,0,0,1-1.45-3.7,6.15,6.15,0,0,1,.34-2.76,4.14,4.14,0,0,1,1.48-1.93,4.85,4.85,0,0,1,2.43-.82,6.65,6.65,0,0,1,3,.46l-.54,1.78a10.46,10.46,0,0,0-1.16-.38A3.38,3.38,0,0,0,114.3,13.83Z" transform="translate(-4.8 -4.8)"/><rect class="b" x="115.83" y="16.01" width="9.99" height="2.12" transform="translate(96.48 132.72) rotate(-88.83)"/><path class="a" d="M130,22.63l-5.73-.48.83-9.95,5.73.48-.15,1.73-3.61-.3-.19,2.18,3.37.28-.14,1.73L126.76,18l-.21,2.57,3.62.3L130,22.63Zm-.36-10.84a7.62,7.62,0,0,1-1.49-1.33,8.9,8.9,0,0,1-1.66,1.06l-1.38-.11v-.19a12.15,12.15,0,0,0,1.92-1.9l2.42.2a8.47,8.47,0,0,0,.66,1c.31.43.62.82.92,1.17l0,.18Z" transform="translate(-4.8 -4.8)"/><path class="a" d="M140.83,24.32l-2.65-.5L135.3,15.6h-.06c-.16,1.33-.29,2.27-.4,2.83L134,23l-1.86-.35L134,12.88l2.63.49,2.89,8.14h.05c.17-1.28.3-2.19.4-2.72l.87-4.65,1.87.35Z" transform="translate(-4.8 -4.8)"/><path class="a" d="M149.59,17.86a2.16,2.16,0,0,0-2,.38,4.15,4.15,0,0,0-1.29,2.25c-.58,2.15-.07,3.44,1.55,3.88a7.94,7.94,0,0,0,2.6.16L150,26.24a7.1,7.1,0,0,1-2.79-.22,4.19,4.19,0,0,1-2.87-2.15,5.63,5.63,0,0,1-.12-4,6.23,6.23,0,0,1,1.26-2.49,4.06,4.06,0,0,1,2.05-1.3,4.76,4.76,0,0,1,2.56.05,6.62,6.62,0,0,1,2.64,1.44l-1.11,1.48c-.31-.26-.63-.51-1-.74A3.11,3.11,0,0,0,149.59,17.86Z" transform="translate(-4.8 -4.8)"/><rect class="b" x="149.46" y="21.93" width="9.99" height="2.12" transform="translate(78.35 157.12) rotate(-71.3)"/><path class="a" d="M161.78,31.46l.33-2.46-3.31-1.51-1.65,1.86-2.07-1,7.37-7.66,2.36,1.08-.95,10.59-2.08-.95Zm.61-4.28c.29-2.24.45-3.51.49-3.8s.08-.52.11-.68c-.37.46-1.36,1.6-3,3.39Z" transform="translate(-4.8 -4.8)"/><path class="a" d="M171.52,33.46a2.58,2.58,0,0,1-1.91,1.36,4.25,4.25,0,0,1-2.74-.67,6.45,6.45,0,0,1-2.15-1.94l1-1.7a12,12,0,0,0,1.17,1.4,4.75,4.75,0,0,0,1,.8A1.82,1.82,0,0,0,169,33a1,1,0,0,0,.83-1,1.72,1.72,0,0,0-.19-.63c-.12-.22-.38-.63-.79-1.23a6.67,6.67,0,0,1-.78-1.4,3.11,3.11,0,0,1-.17-1.17,2.62,2.62,0,0,1,.38-1.2A2.58,2.58,0,0,1,170.05,25a3.73,3.73,0,0,1,2.53.59,6.07,6.07,0,0,1,1.2.9,10.34,10.34,0,0,1,1,1.19l-1.42,1.08a10.1,10.1,0,0,0-.91-1.05,4.44,4.44,0,0,0-.83-.63,1.4,1.4,0,0,0-.94-.22.91.91,0,0,0-.64.48.79.79,0,0,0-.13.48,1.31,1.31,0,0,0,.15.56,12.42,12.42,0,0,0,.82,1.28,5.32,5.32,0,0,1,1,2.12A2.62,2.62,0,0,1,171.52,33.46Z" transform="translate(-4.8 -4.8)"/><path class="a" d="M184.43,39.54a4.92,4.92,0,0,1-3.36,2.23,5.7,5.7,0,0,1-4-1.32l-2.29-1.66,5.86-8.09,2.54,1.84a5.24,5.24,0,0,1,2.32,3.28,4.72,4.72,0,0,1-1,3.72Zm-1.82-1.25c1.26-1.74,1.13-3.16-.41-4.28l-.91-.66-3.82,5.27.74.53Q180.69,41,182.61,38.29Z" transform="translate(-4.8 -4.8)"/><path class="a" d="M187.64,49l1-2.28-2.77-2.37-2.1,1.33L182,44.22l9.2-5.33,2,1.69-3.84,9.92L187.64,49Zm1.77-4,1.52-3.52c.12-.26.22-.47.3-.62-.5.34-1.76,1.16-3.8,2.44Z" transform="translate(-4.8 -4.8)"/><path class="a" d="M201.66,52a2.14,2.14,0,0,0-1.89-.81,4.16,4.16,0,0,0-2.32,1.14c-1.68,1.45-2,2.81-.88,4.08A7.82,7.82,0,0,0,198.63,58l-1.34,1.16a7.13,7.13,0,0,1-2.19-1.74A4.21,4.21,0,0,1,193.92,54,5.64,5.64,0,0,1,196,50.66a6,6,0,0,1,2.43-1.35,4.07,4.07,0,0,1,2.42,0A4.92,4.92,0,0,1,203,50.83a6.75,6.75,0,0,1,1.37,2.68l-1.74.61a10.52,10.52,0,0,0-.39-1.16A3.33,3.33,0,0,0,201.66,52Z" transform="translate(-4.8 -4.8)"/><path class="a" d="M207.56,65.67a5.42,5.42,0,0,1-3.83,1.18,5.33,5.33,0,0,1-4-5.78,6.5,6.5,0,0,1,6.25-4.37,4.57,4.57,0,0,1,3.11,2.14,4.52,4.52,0,0,1,.93,3.64,5.37,5.37,0,0,1-2.42,3.19Zm-4.18-6a4.13,4.13,0,0,0-1.7,2,2.24,2.24,0,0,0,.39,2.05q1.45,2.07,4.22.14t1.32-4a2.23,2.23,0,0,0-1.8-1.07A4.1,4.1,0,0,0,203.38,59.7Z" transform="translate(-4.8 -4.8)"/><path class="a" d="M206.49,74.07l5.91-5.68,0,0c-1.38.79-2.31,1.31-2.78,1.55L205.44,72l-.85-1.69,8.91-4.51,1.3,2.58-5.75,5.55,0,0L217,72.75l1.3,2.57-8.91,4.5-.89-1.76,4.22-2.13.69-.34,2.12-1,0-.06-8.14,1.23Z" transform="translate(-4.8 -4.8)"/><path class="a" d="M216,82.25l.25.65a2.29,2.29,0,0,0,.89,1.23,1.36,1.36,0,0,0,1.22.05,1.41,1.41,0,0,0,.88-.78,1.9,1.9,0,0,0-.13-1.31l-.34-.91L216,82.25Zm3.2,3.9a3.1,3.1,0,0,1-2.67-.06,4.27,4.27,0,0,1-1.82-2.37l-.33-.84-3.32,1.27-.76-2,9.32-3.6,1.15,3a4.21,4.21,0,0,1,.26,2.86A2.87,2.87,0,0,1,219.23,86.15Z" transform="translate(-4.8 -4.8)"/><path class="a" d="M225.19,95.59,219,97.31a3.69,3.69,0,0,1-2,0,3.23,3.23,0,0,1-1.62-1,5.15,5.15,0,0,1-1-2,4.23,4.23,0,0,1,.16-3.15,3.51,3.51,0,0,1,2.32-1.75l6.2-1.71.56,2-5.89,1.63a2.6,2.6,0,0,0-1.51.9,2,2,0,0,0-.11,1.63,1.85,1.85,0,0,0,.93,1.3,2.5,2.5,0,0,0,1.76,0l5.88-1.63Z" transform="translate(-4.8 -4.8)"/><polygon class="a" points="211.91 99.66 211.53 97.57 219.62 96.08 219.13 93.41 220.86 93.09 222.23 100.51 220.5 100.83 220 98.16 211.91 99.66"/><path class="a" d="M217.82,114.77l2.31-.92-.29-3.63-2.43-.53-.19-2.28,10.29,2.71.21,2.58L218,117l-.19-2.27Zm4-1.57,3.56-1.42c.27-.11.49-.19.65-.24-.59-.1-2.07-.41-4.42-.93Z" transform="translate(-4.8 -4.8)"/><path class="a" d="M226.27,122.72a2.16,2.16,0,0,0-.86-1.87,4.23,4.23,0,0,0-2.49-.71c-2.22,0-3.35.77-3.39,2.44a7.8,7.8,0,0,0,.48,2.56l-1.78,0a6.94,6.94,0,0,1-.46-2.75,4.22,4.22,0,0,1,1.39-3.31A5.58,5.58,0,0,1,223,118a6.26,6.26,0,0,1,2.72.62,4.06,4.06,0,0,1,1.76,1.67,4.92,4.92,0,0,1,.58,2.5,6.87,6.87,0,0,1-.77,2.91l-1.71-.72a10,10,0,0,0,.49-1.12,3.37,3.37,0,0,0,.22-1.11Zm-10.09.85a1.49,1.49,0,0,1-1.26-.54,2.66,2.66,0,0,1-.35-1.61,3.21,3.21,0,0,1,.16-1l1.15,0a4.45,4.45,0,0,0-.11.5q0,.3-.06.48c0,.32.13.49.42.5s.63-.37.76-1.12l1,.55,0,1.32-.41-.19a1.79,1.79,0,0,1-.52.79A1.19,1.19,0,0,1,216.18,123.57Z" transform="translate(-4.8 -4.8)"/><path class="a" d="M217,133.3l2.45-.41.47-3.62-2.27-1,.29-2.26,9.5,4.77-.32,2.57-10.41,2.24.29-2.27Zm4.28-.69L225,132c.29,0,.52-.08.69-.09-.56-.22-1.94-.84-4.13-1.83l-.33,2.58Zm7.61-1.47a.62.62,0,0,0-.13-.43,1.07,1.07,0,0,0-.51-.35l.13-1a2.59,2.59,0,0,1,1.47.76,1.62,1.62,0,0,1,.39,1.35,1.5,1.5,0,0,1-.18.54c-.1.16-.2.33-.32.49s-.21.33-.3.48a1.32,1.32,0,0,0-.17.48.59.59,0,0,0,.12.43,1.07,1.07,0,0,0,.51.35l-.13,1a2.59,2.59,0,0,1-1.47-.76,1.63,1.63,0,0,1-.39-1.35,1.29,1.29,0,0,1,.18-.53c.1-.17.2-.34.31-.5s.22-.32.31-.48A1.18,1.18,0,0,0,228.87,131.14Z" transform="translate(-4.8 -4.8)"/><path class="a" d="M219.42,146.8a5.44,5.44,0,0,1-3.43-2.07,5.32,5.32,0,0,1,1.6-6.86,6.52,6.52,0,0,1,7.43,1.74,5.36,5.36,0,0,1-1.61,6.86,5.48,5.48,0,0,1-4,.33Zm1.66-7.1a4.23,4.23,0,0,0-2.6,0,2.23,2.23,0,0,0-1.26,1.66q-.57,2.46,2.71,3.23t3.85-1.68a2.25,2.25,0,0,0-.39-2A4.14,4.14,0,0,0,221.08,139.7Z" transform="translate(-4.8 -4.8)"/><path class="a" d="M71.72,206.1l-3.52,5.43a3.82,3.82,0,0,1-1.48,1.36,3.19,3.19,0,0,1-1.89.29,5.19,5.19,0,0,1-2.11-.83,4.28,4.28,0,0,1-2-2.46,3.51,3.51,0,0,1,.58-2.85l3.51-5.4,1.77,1.14-3.33,5.14a2.61,2.61,0,0,0-.54,1.67,2,2,0,0,0,1,1.3,1.92,1.92,0,0,0,1.56.36,2.53,2.53,0,0,0,1.32-1.17L70,205Z" transform="translate(-4.8 -4.8)"/><path class="a" d="M76.4,219.56,74,218.34l-.48-8.71-.06,0q-.78,1.84-1.17,2.61l-2.12,4.2-1.69-.86,4.5-8.92,2.39,1.2.51,8.64,0,0c.52-1.19.91-2,1.15-2.5l2.13-4.23,1.7.86Z" transform="translate(-4.8 -4.8)"/><polygon class="a" points="79.33 217.73 73.99 215.58 77.72 206.3 83.06 208.45 82.41 210.06 79.04 208.71 78.22 210.75 81.36 212.01 80.71 213.62 77.57 212.35 76.61 214.75 79.98 216.1 79.33 217.73"/><path class="a" d="M92.51,222.1A2.59,2.59,0,0,1,91,223.91a4.25,4.25,0,0,1-2.82.05,6.44,6.44,0,0,1-2.58-1.32l.51-1.9a12,12,0,0,0,1.49,1.06,5.13,5.13,0,0,0,1.19.51,1.8,1.8,0,0,0,1.1,0,.91.91,0,0,0,.57-.67.94.94,0,0,0,0-.55,1.85,1.85,0,0,0-.36-.55,11.23,11.23,0,0,0-1.07-1,6.47,6.47,0,0,1-1.12-1.15,3.17,3.17,0,0,1-.46-1.09,2.86,2.86,0,0,1,1.46-3,3.78,3.78,0,0,1,2.6-.09,5.89,5.89,0,0,1,1.39.57,10.21,10.21,0,0,1,1.29.88l-1.09,1.42a10.52,10.52,0,0,0-1.16-.79,4.4,4.4,0,0,0-1-.39,1.4,1.4,0,0,0-1,0,.92.92,0,0,0-.5.63.85.85,0,0,0,0,.5,1.46,1.46,0,0,0,.29.5,13.68,13.68,0,0,0,1.12,1,5.35,5.35,0,0,1,1.51,1.8A2.61,2.61,0,0,1,92.51,222.1Z" transform="translate(-4.8 -4.8)"/><path class="a" d="M96.81,220.55l.68.16a2.31,2.31,0,0,0,1.52-.05,1.32,1.32,0,0,0,.72-1,1.38,1.38,0,0,0-.14-1.17,1.92,1.92,0,0,0-1.16-.63l-.94-.22-.68,2.89Zm5-.46a3.06,3.06,0,0,1-1.55,2.18,4.32,4.32,0,0,1-3,.18l-.89-.21-.81,3.46-2.06-.48,2.27-9.73,3.11.72a4.31,4.31,0,0,1,2.52,1.39A2.9,2.9,0,0,1,101.84,220.09Z" transform="translate(-4.8 -4.8)"/><rect class="b" x="106.33" y="222.11" width="1.71" height="3.67" transform="translate(-132.74 298.89) rotate(-83.16)"/><path class="a" d="M116.15,222.85l.68,0a2.62,2.62,0,0,0,1.49-.29,1.2,1.2,0,0,0,.52-1,1.11,1.11,0,0,0-.46-1,3,3,0,0,0-1.5-.35l-.64,0-.09,2.7Zm-.06,1.72-.12,3.84-2.12-.07.32-10,2.91.09a5,5,0,0,1,3,.84,2.95,2.95,0,0,1,.37,3.84,3.22,3.22,0,0,1-1.41,1c1.43,2.29,2.37,3.78,2.8,4.45l-2.35-.08-2.26-3.91Z" transform="translate(-4.8 -4.8)"/><rect class="b" x="122.93" y="218.41" width="2.12" height="10" transform="translate(-11.95 -0.68) rotate(-1.85)"/><path class="a" d="M136.14,222.28a5.41,5.41,0,0,1-.77,3.94,5.31,5.31,0,0,1-7,.84,5.44,5.44,0,0,1-1.68-3.65,5.36,5.36,0,0,1,.77-3.93,4.6,4.6,0,0,1,3.36-1.73,4.51,4.51,0,0,1,3.65.89,5.43,5.43,0,0,1,1.67,3.64Zm-7.24.87a4.2,4.2,0,0,0,.93,2.44,2.23,2.23,0,0,0,2,.61q2.52-.3,2.11-3.65c-.26-2.24-1.23-3.25-2.9-3.05a2.26,2.26,0,0,0-1.8,1.07A4.17,4.17,0,0,0,128.9,223.15Z" transform="translate(-4.8 -4.8)"/><path class="a" d="M144.6,217.07a2.17,2.17,0,0,0-1.61,1.29,4.21,4.21,0,0,0-.07,2.59q.75,3.26,3.19,2.7a7.93,7.93,0,0,0,2.37-1.09l.4,1.73a7.1,7.1,0,0,1-2.56,1.12,4.17,4.17,0,0,1-3.55-.54,5.62,5.62,0,0,1-2-3.44,6.3,6.3,0,0,1-.06-2.79,4.13,4.13,0,0,1,1.18-2.12,4.76,4.76,0,0,1,2.29-1.17,6.66,6.66,0,0,1,3,0l-.28,1.83c-.41-.09-.81-.15-1.21-.2A3.46,3.46,0,0,0,144.6,217.07Z" transform="translate(-4.8 -4.8)"/><polygon class="a" points="146.21 219.28 142.98 209.81 144.99 209.13 147.65 216.93 151.49 215.62 152.06 217.28 146.21 219.28"/><path class="a" d="M164.16,219.2l-1.55-1.94-3.39,1.34.21,2.48-2.12.84-.43-10.63,2.4-.95,7,8-2.12.84Zm-2.68-3.41-2.4-3c-.18-.23-.32-.42-.41-.56q.11.9.39,4.5Z" transform="translate(-4.8 -4.8)"/><path class="a" d="M166.76,211.72l.62-.3a2.52,2.52,0,0,0,1.17-1,1.18,1.18,0,0,0,0-1.15,1.08,1.08,0,0,0-.89-.69,3,3,0,0,0-1.49.41l-.57.28,1.2,2.42Zm.77,1.54,1.71,3.44-1.89.94-4.46-8.95,2.61-1.3a4.92,4.92,0,0,1,3-.67,2.62,2.62,0,0,1,1.88,1.57,2.74,2.74,0,0,1,.27,1.63,3.26,3.26,0,0,1-.75,1.57c2.35,1.34,3.87,2.21,4.57,2.59l-2.1,1-3.85-2.37Z" transform="translate(-4.8 -4.8)"/><path class="a" d="M180.47,204.21a5.39,5.39,0,0,1,1,3.88,5.34,5.34,0,0,1-5.95,3.78,5.49,5.49,0,0,1-3.1-2.57,5.4,5.4,0,0,1-1-3.88,4.61,4.61,0,0,1,2.28-3,4.55,4.55,0,0,1,3.68-.77,5.43,5.43,0,0,1,3.08,2.57Zm-6.15,3.91a4.21,4.21,0,0,0,1.89,1.79,2.19,2.19,0,0,0,2-.31c1.43-.9,1.54-2.31.34-4.2s-2.52-2.4-3.94-1.5a2.23,2.23,0,0,0-1.16,1.74A4.22,4.22,0,0,0,174.32,208.12Z" transform="translate(-4.8 -4.8)"/><path class="a" d="M191.77,194.24a2.14,2.14,0,0,0,1.59.6,2.17,2.17,0,0,0,1.55-.71,2.22,2.22,0,0,0-.1-3.14,2.15,2.15,0,0,0-1.6-.6,2.2,2.2,0,0,0-2.15,2.3A2.15,2.15,0,0,0,191.77,194.24Z" transform="translate(-4.8 -4.8)"/><path class="a" d="M203.05,181.5a2.14,2.14,0,0,0,1.66.39,2.23,2.23,0,0,0,1.85-2.55,2.24,2.24,0,0,0-4-1,2.11,2.11,0,0,0-.39,1.65A2.15,2.15,0,0,0,203.05,181.5Z" transform="translate(-4.8 -4.8)"/><path class="a" d="M212.23,166.47a2.1,2.1,0,0,0,1.7.06,2.15,2.15,0,0,0,1.25-1.15,2.25,2.25,0,0,0-1.09-3,2.21,2.21,0,0,0-1.71-.06,2.14,2.14,0,0,0-1.25,1.16,2.23,2.23,0,0,0,1.1,2.95Z" transform="translate(-4.8 -4.8)"/><path class="a" d="M48.23,194.24a2.14,2.14,0,0,1-1.59.6,2.17,2.17,0,0,1-1.55-.71,2.22,2.22,0,0,1,.1-3.14,2.15,2.15,0,0,1,1.6-.6,2.2,2.2,0,0,1,2.15,2.3A2.15,2.15,0,0,1,48.23,194.24Z" transform="translate(-4.8 -4.8)"/><path class="a" d="M37,181.5a2.14,2.14,0,0,1-1.66.39,2.23,2.23,0,0,1-1.85-2.55,2.24,2.24,0,0,1,4-1,2.11,2.11,0,0,1,.39,1.65A2.15,2.15,0,0,1,37,181.5Z" transform="translate(-4.8 -4.8)"/><path class="a" d="M27.77,166.47a2.1,2.1,0,0,1-1.7.06,2.15,2.15,0,0,1-1.25-1.15,2.25,2.25,0,0,1,1.09-3,2.21,2.21,0,0,1,1.71-.06,2.14,2.14,0,0,1,1.25,1.16,2.23,2.23,0,0,1-1.1,2.95Z" transform="translate(-4.8 -4.8)"/></svg>